# xmcd
#
# Track frame offsets:
# 150
# 9261
# 20025
# 30253
# 40680
# 51833
# 63616
# 72046
# 83000
# 99090
# 111838
# 120287
# 131200
# 141205
# 152409
# 161191
# 174233
# 188660
# 196713
# 205354
# 219801
# 233127
# 248802
# 264246
# 274983
#
# Disc length: 3814 seconds
#
# Revision: 0
# Processed by: cddbd v1.4PL0 Copyright (c) Steve Scherf et al.
# Submitted via: Axialis_AX_CDPlayer 2.6
#
DISCID=450ee419
DTITLE=Bob Wills and His Texas Playboys - He's a Ding Dong Daddy!
DYEAR=1900
DGENRE=
TTITLE0=Keep Knockin' (But You Can't Come In)
TTITLE1=Okie Boogie
TTITLE2=My Gal Sal
TTITLE3=Sugar Blues
TTITLE4=Lone Star Rag
TTITLE5=Straighten Up and Fly Right
TTITLE6=Little Betty Brown
TTITLE7=Texas Plains
TTITLE8=My Brown Eyed Texas Rose
TTITLE9=New Spanish Two-Step
TTITLE10=Oklahoma Hills
TTITLE11=Oklahoma Rag
TTITLE12=Get Along Home, Cindy
TTITLE13=Ten Years
TTITLE14=Crazy Rhythm
TTITLE15=Four or Five Times
TTITLE16=I'm a Ding Dong Daddy
TTITLE17=Cotton-Eyed Joe
TTITLE18=That's Your Red Wagon
TTITLE19=Take the "A" Train
TTITLE20=Cherokee Maiden
TTITLE21=Steel Guitar Rag
TTITLE22=San Antonio Rose
TTITLE23=I'm Gonna Be Boss From Now On
TTITLE24=Dinah
EXTD=JASMCD 3426  
EXTT0=
EXTT1=
EXTT2=
EXTT3=
EXTT4=
EXTT5=
EXTT6=
EXTT7=
EXTT8=
EXTT9=
EXTT10=
EXTT11=
EXTT12=
EXTT13=
EXTT14=
EXTT15=
EXTT16=
EXTT17=
EXTT18=
EXTT19=
EXTT20=
EXTT21=
EXTT22=
EXTT23=
EXTT24=
PLAYORDER=
